<svg width="88" height="88" viewBox="0 0 88 88" fill="none" xmlns="http://www.w3.org/2000/svg">
<rect x="0.5" y="0.5" width="87" height="87" rx="9.5" stroke="#ED884A" stroke-opacity="0.5" stroke-dasharray="6 6"/>
<path d="M36.2891 51.4297C35.5286 51.4297 34.9557 51.237 34.5703 50.8516C34.1849 50.4714 33.9922 49.9062 33.9922 49.1562V39.5703C33.9922 38.8151 34.1849 38.2474 34.5703 37.8672C34.9557 37.4818 35.5286 37.2891 36.2891 37.2891H49.9844C50.75 37.2891 51.3255 37.4844 51.7109 37.875C52.0964 38.2604 52.2891 38.8255 52.2891 39.5703V44.3047C52.2057 44.2995 52.125 44.2943 52.0469 44.2891C51.9688 44.2839 51.8906 44.2812 51.8125 44.2812C51.7292 44.2812 51.6458 44.2839 51.5625 44.2891C51.4844 44.2943 51.4036 44.3021 51.3203 44.3125V39.625C51.3203 39.1719 51.2031 38.8307 50.9688 38.6016C50.7344 38.3672 50.401 38.25 49.9688 38.25H36.3125C35.8698 38.25 35.5312 38.3672 35.2969 38.6016C35.0677 38.8307 34.9531 39.1719 34.9531 39.625V48.6562L37.4453 46.3594C37.6016 46.2083 37.7604 46.0964 37.9219 46.0234C38.0885 45.9505 38.2656 45.9141 38.4531 45.9141C38.6458 45.9141 38.8281 45.9531 39 46.0312C39.1771 46.1094 39.349 46.2214 39.5156 46.3672L40.9844 47.7188L44.5391 44.5391C44.7266 44.3776 44.9167 44.2552 45.1094 44.1719C45.3021 44.0885 45.5078 44.0469 45.7266 44.0469C45.9557 44.0469 46.1693 44.0911 46.3672 44.1797C46.5703 44.263 46.763 44.388 46.9453 44.5547L48.3203 45.8281C47.9141 46.25 47.5964 46.7396 47.3672 47.2969C47.138 47.849 47.0234 48.4401 47.0234 49.0703C47.0234 49.4974 47.0781 49.9115 47.1875 50.3125C47.3021 50.7135 47.4609 51.0859 47.6641 51.4297H36.2891ZM39.7344 44.4766C39.3958 44.4766 39.0859 44.3958 38.8047 44.2344C38.5286 44.0677 38.3073 43.8438 38.1406 43.5625C37.974 43.2812 37.8906 42.9714 37.8906 42.6328C37.8906 42.2995 37.974 41.9922 38.1406 41.7109C38.3073 41.4297 38.5286 41.2057 38.8047 41.0391C39.0859 40.8724 39.3958 40.7891 39.7344 40.7891C40.0729 40.7891 40.3802 40.8724 40.6562 41.0391C40.9323 41.2057 41.1536 41.4297 41.3203 41.7109C41.487 41.9922 41.5703 42.2995 41.5703 42.6328C41.5703 42.9714 41.487 43.2812 41.3203 43.5625C41.1536 43.8438 40.9323 44.0677 40.6562 44.2344C40.3802 44.3958 40.0729 44.4766 39.7344 44.4766ZM51.8203 52.9531C51.2891 52.9531 50.7891 52.8516 50.3203 52.6484C49.8516 52.4505 49.4375 52.1719 49.0781 51.8125C48.724 51.4583 48.4453 51.0443 48.2422 50.5703C48.0391 50.1016 47.9375 49.6016 47.9375 49.0703C47.9375 48.5391 48.0391 48.0391 48.2422 47.5703C48.4453 47.1016 48.724 46.6875 49.0781 46.3281C49.4375 45.9688 49.8516 45.6901 50.3203 45.4922C50.7891 45.2891 51.2891 45.1875 51.8203 45.1875C52.3568 45.1875 52.8594 45.2891 53.3281 45.4922C53.7969 45.6901 54.2083 45.9688 54.5625 46.3281C54.9219 46.6823 55.2005 47.0938 55.3984 47.5625C55.6016 48.0312 55.7031 48.5339 55.7031 49.0703C55.7031 49.6016 55.6016 50.1016 55.3984 50.5703C55.1953 51.0391 54.9141 51.4505 54.5547 51.8047C54.1953 52.1641 53.7812 52.4453 53.3125 52.6484C52.8438 52.8516 52.3464 52.9531 51.8203 52.9531ZM51.8125 51.5312C51.9427 51.5312 52.0443 51.4922 52.1172 51.4141C52.1953 51.3359 52.2344 51.237 52.2344 51.1172V49.4844H53.8594C53.9792 49.4844 54.0781 49.4479 54.1562 49.375C54.2344 49.3021 54.2734 49.2005 54.2734 49.0703C54.2734 48.9401 54.2344 48.8385 54.1562 48.7656C54.0781 48.6927 53.9792 48.6562 53.8594 48.6562H52.2344V47.0234C52.2344 46.9036 52.1953 46.8047 52.1172 46.7266C52.0443 46.6484 51.9427 46.6094 51.8125 46.6094C51.6875 46.6094 51.5859 46.6484 51.5078 46.7266C51.4349 46.8047 51.3984 46.9036 51.3984 47.0234V48.6562H49.7656C49.6458 48.6562 49.5469 48.6927 49.4688 48.7656C49.3906 48.8385 49.3516 48.9401 49.3516 49.0703C49.3516 49.2005 49.3906 49.3021 49.4688 49.375C49.5469 49.4479 49.6458 49.4844 49.7656 49.4844H51.3984V51.1172C51.3984 51.237 51.4349 51.3359 51.5078 51.4141C51.5859 51.4922 51.6875 51.5312 51.8125 51.5312Z" fill="#ED884A" fill-opacity="0.75"/>
</svg>
